<?xml version="1.0" standalone="no"?>
<!DOCTYPE svg PUBLIC "-//W3C//DTD SVG 20010904//EN"
 "http://www.w3.org/TR/2001/REC-SVG-20010904/DTD/svg10.dtd">
<svg version="1.0" xmlns="http://www.w3.org/2000/svg"
 width="160.000000pt" height="122.000000pt" viewBox="0 0 160.000000 122.000000"
 preserveAspectRatio="xMidYMid meet">
<metadata>
Created by potrace 1.10, written by Peter Selinger 2001-2011
</metadata>
<g transform="translate(0.000000,122.000000) scale(0.100000,-0.100000)"
fill="#000000" stroke="none">
<path d="M1322 1117 l-24 -25 50 -62 c129 -160 180 -371 137 -575 -19 -89 -91
-235 -149 -301 l-45 -51 24 -23 24 -22 33 37 c83 95 136 191 170 312 28 100
31 275 5 373 -30 113 -94 233 -174 328 l-28 33 -23 -24z"/>
<path d="M232 1077 c-53 -65 -126 -211 -149 -297 -23 -88 -23 -272 0 -360 24
-92 98 -235 155 -302 l50 -57 22 24 22 23 -46 57 c-205 251 -207 613 -6 863
l48 60 -22 21 c-12 12 -24 21 -27 21 -2 0 -23 -24 -47 -53z"/>
<path d="M367 962 c-171 -212 -168 -529 6 -727 l42 -47 23 25 23 25 -27 28
c-151 160 -169 424 -43 614 23 34 48 64 55 67 11 4 9 12 -9 33 -12 16 -24 29
-27 29 -3 0 -22 -21 -43 -47z"/>
<path d="M1183 979 l-21 -21 36 -47 c51 -67 90 -160 103 -245 9 -61 8 -88 -5
-153 -18 -91 -61 -183 -109 -235 l-34 -37 24 -23 25 -23 39 44 c104 117 153
315 118 483 -15 73 -70 186 -116 237 l-38 42 -22 -22z"/>
<path d="M732 970 c-160 -34 -287 -179 -299 -344 -17 -225 152 -408 377 -408
320 0 497 371 294 619 -87 106 -239 161 -372 133z m297 -118 c32 -24 91 -105
91 -126 0 -5 -13 10 -28 35 -16 24 -51 64 -78 88 -50 46 -44 47 15 3z m-445
-24 c-27 -29 -57 -64 -67 -78 -10 -14 -8 -6 5 19 21 39 88 111 104 111 4 0
-15 -24 -42 -52z m353 24 c182 -93 213 -330 62 -466 -113 -101 -265 -101 -378
0 -162 145 -110 403 96 480 54 20 167 13 220 -14z m151 -444 c-19 -29 -57 -68
-84 -87 l-49 -34 60 55 c33 31 69 72 80 91 10 20 21 34 24 32 2 -3 -12 -28
-31 -57z m-502 -45 c28 -29 49 -53 46 -53 -16 0 -81 65 -100 101 -12 24 -17
35 -10 24 7 -11 36 -44 64 -72z"/>
<path d="M766 649 c-50 -39 -22 -122 42 -122 69 0 99 80 46 122 -15 12 -34 21
-44 21 -10 0 -29 -9 -44 -21z m67 -43 c9 -22 -19 -42 -37 -26 -19 15 -10 40
14 40 10 0 20 -6 23 -14z"/>
</g>
</svg>
