<?xml version="1.0" standalone="no"?>
<!DOCTYPE svg PUBLIC "-//W3C//DTD SVG 20010904//EN"
 "http://www.w3.org/TR/2001/REC-SVG-20010904/DTD/svg10.dtd">
<svg version="1.0" xmlns="http://www.w3.org/2000/svg"
 width="221.000000pt" height="300.000000pt" viewBox="0 0 221.000000 300.000000"
 preserveAspectRatio="xMidYMid meet">
<metadata>
Created by potrace 1.10, written by Peter Selinger 2001-2011
</metadata>
<g transform="translate(0.000000,300.000000) scale(0.100000,-0.100000)"
fill="#000000" stroke="none">
<path d="M971 2939 c-506 -59 -874 -517 -820 -1019 5 -52 17 -120 25 -150 62
-218 206 -413 398 -539 43 -28 82 -51 85 -51 4 0 13 -17 20 -37 20 -56 89
-246 127 -348 18 -49 53 -146 78 -215 25 -69 66 -181 91 -250 26 -69 55 -150
64 -180 24 -76 42 -75 68 2 12 35 38 108 58 163 52 139 101 276 135 370 16 44
49 136 75 205 25 69 58 160 73 203 22 65 32 82 57 94 123 63 271 199 350 322
164 254 194 587 78 860 -110 261 -341 467 -603 540 -68 18 -232 43 -270 40 -8
-1 -48 -5 -89 -10z m327 -59 c559 -154 829 -754 572 -1272 -68 -139 -207 -287
-337 -360 -47 -26 -103 -82 -103 -102 0 -3 -32 -93 -71 -199 -39 -105 -88
-239 -109 -297 -113 -312 -163 -446 -169 -453 -12 -13 -26 12 -60 108 -132
366 -292 804 -314 856 -12 29 -37 51 -114 102 -200 132 -330 314 -389 547 -25
100 -26 316 -1 408 47 175 124 311 244 430 136 135 307 222 498 253 83 13 267
2 353 -21z"/>
<path d="M934 2675 c-233 -50 -418 -218 -501 -453 -24 -68 -27 -92 -27 -207 0
-142 10 -188 65 -300 184 -375 670 -492 1006 -242 166 123 273 336 273 542 0
298 -196 558 -490 650 -71 22 -245 28 -326 10z m277 -35 c74 -13 223 -89 287
-145 70 -63 134 -155 174 -251 30 -72 33 -90 36 -209 4 -121 2 -137 -23 -210
-38 -113 -78 -180 -159 -261 -81 -80 -146 -121 -261 -160 -69 -24 -95 -28
-190 -28 -128 1 -226 27 -334 91 -73 44 -177 150 -221 225 -89 155 -110 347
-56 511 30 92 79 177 142 247 78 86 220 168 328 190 59 11 214 12 277 0z"/>
<path d="M962 2195 c-106 -30 -192 -90 -254 -178 -31 -45 -39 -64 -31 -75 17
-28 31 -24 63 22 48 71 99 116 170 150 59 28 74 31 165 31 87 0 107 -3 157
-27 64 -30 136 -92 180 -156 30 -44 44 -48 61 -20 13 20 -48 108 -116 165
-102 86 -270 123 -395 88z"/>
<path d="M990 2071 c-84 -28 -200 -126 -200 -171 0 -42 30 -34 80 22 122 137
288 137 409 1 34 -38 53 -52 64 -47 28 10 19 39 -29 93 -65 73 -130 103 -224
107 -41 2 -86 0 -100 -5z"/>
<path d="M993 1925 c-54 -27 -88 -67 -79 -91 8 -20 42 -17 58 4 24 33 62 52
105 52 35 0 50 -7 82 -35 41 -38 68 -44 78 -19 8 21 -41 72 -92 95 -54 25 -92
24 -152 -6z"/>
</g>
</svg>
